<svg xmlns="http://www.w3.org/2000/svg" viewBox="0 0 68 164.97"><defs><style>.cls-1{fill:red;}.cls-2{fill:#00a99d;}.cls-3{fill:#f9f6e5;}</style></defs><title>A</title><g id="Layer_2" data-name="Layer 2"><g id="Layer_4" data-name="Layer 4"><rect class="cls-1" x="24" width="21" height="65"/><rect x="24" y="65" width="21" height="41.5"/><path class="cls-2" d="M68,131a34,34,0,0,1-68,0c0-.17,0-.33,0-.5H68C68,130.64,68,130.8,68,131Z"/><path class="cls-3" d="M34,97a34,34,0,0,1,34,33.5H0A34,34,0,0,1,34,97Z"/></g><g id="Layer_5" data-name="Layer 5"><path d="M24.69,138.53l9.13-21.84H34l9.16,21.84H39.94L33.1,121.1l2-1.31-7.63,18.74Zm5.36-7.95h7.8l.93,2.44H29.24Z"/></g></g></svg>