<svg xmlns="http://www.w3.org/2000/svg" viewBox="0 0 68 165.88"><defs><style>.cls-1{fill:red;}.cls-2{fill:#00a99d;}.cls-3{fill:#f9f6e5;}</style></defs><title>D</title><g id="Layer_2" data-name="Layer 2"><g id="Layer_4" data-name="Layer 4"><rect class="cls-1" x="24" width="21" height="65.45"/><rect x="24" y="65.45" width="21" height="41.05"/><path class="cls-2" d="M68,131.88a34,34,0,0,1-68,0c0-.32,0-.64,0-1H68C68,131.24,68,131.56,68,131.88Z"/><path class="cls-3" d="M34,97.88a34,34,0,0,1,34,33H0A34,34,0,0,1,34,97.88Z"/></g><g id="Layer_5" data-name="Layer 5"><path d="M26.11,138.25v-21h5.72a13.26,13.26,0,0,1,5.3.94,9.59,9.59,0,0,1,3.53,2.52,10.09,10.09,0,0,1,2,3.47,12.4,12.4,0,0,1,.6,3.79,10.56,10.56,0,0,1-.82,4.27,9.65,9.65,0,0,1-2.26,3.22,10,10,0,0,1-3.31,2,10.94,10.94,0,0,1-4,.71Zm2.82-2.7h3.39A9.39,9.39,0,0,0,35.5,135a7.74,7.74,0,0,0,2.55-1.5,6.81,6.81,0,0,0,1.69-2.43,8.25,8.25,0,0,0,.61-3.29,8.53,8.53,0,0,0-.63-3.38A7.17,7.17,0,0,0,38,122a7.83,7.83,0,0,0-2.5-1.49,8.35,8.35,0,0,0-2.9-.51H28.93Z"/></g></g></svg>