<svg xmlns="http://www.w3.org/2000/svg" viewBox="0 0 68 163.12"><defs><style>.cls-1{fill:red;}.cls-2{fill:#00a99d;}.cls-3{fill:#f9f6e5;}</style></defs><title>F</title><g id="Layer_2" data-name="Layer 2"><g id="Layer_4" data-name="Layer 4"><rect class="cls-1" x="24" y="106.08" width="21" height="0.42"/><rect class="cls-1" x="24" width="21" height="64.08"/><rect x="24" y="64.08" width="21" height="42"/><path class="cls-2" d="M34,163.12A34,34,0,0,1,0,129.55H68A34,34,0,0,1,34,163.12Z"/><path class="cls-3" d="M34,95.12a34,34,0,0,1,34,34c0,.14,0,.28,0,.43H0c0-.15,0-.29,0-.43A34,34,0,0,1,34,95.12Z"/></g><g id="Layer_5" data-name="Layer 5"><path d="M29.18,115.91H41.62v2.69H32v6.67h8.44V128H32v8.9H29.18Z"/></g></g></svg>