<svg xmlns="http://www.w3.org/2000/svg" viewBox="0 0 68 163.73"><defs><style>.cls-1{fill:red;}.cls-2{fill:#00a99d;}.cls-3{fill:#f9f6e5;}</style></defs><title>G</title><g id="Layer_2" data-name="Layer 2"><g id="Layer_4" data-name="Layer 4"><rect class="cls-1" x="24" y="106.38" width="21" height="0.12"/><rect class="cls-1" x="24" width="21" height="64.38"/><rect x="24" y="64.38" width="21" height="42"/><path class="cls-2" d="M34,163.73A34,34,0,0,1,0,129.85H68A34,34,0,0,1,34,163.73Z"/><path class="cls-3" d="M34,95.73a34,34,0,0,1,34,34v.12H0v-.12A34,34,0,0,1,34,95.73Z"/></g><g id="Layer_5" data-name="Layer 5"><path d="M41.44,135.82a5.65,5.65,0,0,1-1.22.74,13.32,13.32,0,0,1-1.73.65,15.49,15.49,0,0,1-1.93.46,10.38,10.38,0,0,1-1.88.18,12.38,12.38,0,0,1-4.55-.79,10.08,10.08,0,0,1-3.47-2.17,9.27,9.27,0,0,1-2.19-3.28,10.89,10.89,0,0,1-.75-4.06,12.28,12.28,0,0,1,.85-4.73,10.3,10.3,0,0,1,2.34-3.49,9.94,9.94,0,0,1,3.43-2.18,11.63,11.63,0,0,1,4.11-.73,13.19,13.19,0,0,1,3.42.42A11.53,11.53,0,0,1,40.63,118l-.93,2.58a11.84,11.84,0,0,0-1.47-.62,13,13,0,0,0-1.75-.49,7.83,7.83,0,0,0-1.66-.19,9.6,9.6,0,0,0-3.37.56,7.32,7.32,0,0,0-2.58,1.63A6.86,6.86,0,0,0,27.2,124a9.13,9.13,0,0,0-.58,3.35,8.21,8.21,0,0,0,.58,3.12,6.76,6.76,0,0,0,1.67,2.46,7.3,7.3,0,0,0,2.56,1.58,9.38,9.38,0,0,0,3.31.55,10.64,10.64,0,0,0,2.09-.2,5.29,5.29,0,0,0,1.76-.64v-4.12H34.45v-2.72h7Z"/></g></g></svg>