<svg xmlns="http://www.w3.org/2000/svg" viewBox="0 0 68 163.42"><defs><style>.cls-1{fill:red;}.cls-2{fill:#00a99d;}.cls-3{fill:#f9f6e5;}</style></defs><title>H</title><g id="Layer_2" data-name="Layer 2"><g id="Layer_4" data-name="Layer 4"><rect class="cls-1" x="24" y="106.23" width="21" height="0.27"/><rect class="cls-1" x="24" width="21" height="64.23"/><rect x="24" y="64.23" width="21" height="42"/><path class="cls-2" d="M34,163.42A34,34,0,0,1,0,129.7H68A34,34,0,0,1,34,163.42Z"/><path class="cls-3" d="M34,95.42a34,34,0,0,1,34,34c0,.1,0,.19,0,.28H0c0-.09,0-.18,0-.28A34,34,0,0,1,34,95.42Z"/></g><g id="Layer_5" data-name="Layer 5"><path d="M41.49,116.86v21H38.68v-9.19h-11v9.19H24.9v-21h2.82v9.08h11v-9.08Z"/></g></g></svg>