<svg xmlns="http://www.w3.org/2000/svg" viewBox="0 0 68 163.52"><defs><style>.cls-1{fill:red;}.cls-2{fill:#00a99d;}.cls-3{fill:#f9f6e5;}</style></defs><title>I</title><g id="Layer_2" data-name="Layer 2"><g id="Layer_4" data-name="Layer 4"><rect class="cls-1" x="24" width="21" height="64.27"/><rect class="cls-1" x="24" y="106.27" width="21" height="0.23"/><rect x="24" y="64.27" width="21" height="42"/><path class="cls-2" d="M34,163.52A34,34,0,0,1,0,129.74H68A34,34,0,0,1,34,163.52Z"/><path class="cls-3" d="M34,95.52a34,34,0,0,1,34,34c0,.08,0,.15,0,.22H0c0-.07,0-.14,0-.22A34,34,0,0,1,34,95.52Z"/></g><g id="Layer_5" data-name="Layer 5"><path d="M34.81,116.18h2.82v21H34.81Z"/></g></g></svg>