<svg xmlns="http://www.w3.org/2000/svg" viewBox="0 0 68 164.03"><defs><style>.cls-1{fill:red;}.cls-2{fill:#00a99d;}.cls-3{fill:#f9f6e5;}</style></defs><title>J</title><g id="Layer_2" data-name="Layer 2"><g id="Layer_4" data-name="Layer 4"><rect class="cls-1" x="24" width="21" height="64.53"/><rect x="24" y="64.53" width="21" height="41.97"/><path class="cls-2" d="M68,130a34,34,0,0,1-68,0v0H68Z"/><path class="cls-3" d="M34,96a34,34,0,0,1,34,34H0A34,34,0,0,1,34,96Z"/></g><g id="Layer_5" data-name="Layer 5"><path d="M37.17,133.6a9,9,0,0,1-1,4.35,6.85,6.85,0,0,1-2.65,2.76,8.11,8.11,0,0,1-3.86,1V139A4.94,4.94,0,0,0,33,137.56a5.54,5.54,0,0,0,1.3-4V116.43h2.84Z"/></g></g></svg>