<svg xmlns="http://www.w3.org/2000/svg" viewBox="0 0 947.53 275"><defs><style>.cls-1,.cls-2{fill:#f9f6e5;}.cls-1,.cls-5{stroke:#00a99d;}.cls-1,.cls-5,.cls-6{stroke-miterlimit:10;}.cls-3{fill:#00a99d;}.cls-4{fill:red;}.cls-5,.cls-6{fill:none;}.cls-6{stroke:#f9f6e5;stroke-linecap:round;stroke-width:8px;}</style></defs><title>keypillar</title><g id="Layer_2" data-name="Layer 2"><g id="Layer_3" data-name="Layer 3"><path class="cls-1" d="M43.54,122.5s-103.21,86,10,152l815.89-1s25-20,42-56-7-69-26-78c-16.94-8-10.28-17-10.28-17Z"/><circle class="cls-2" cx="71.95" cy="63" r="27.5"/><circle class="cls-2" cx="122.95" cy="59" r="27.5"/></g><g id="Layer_1-2" data-name="Layer 1"><rect class="cls-3" x="59.95" y="83" width="15" height="38"/><rect class="cls-3" x="121.95" y="85" width="17" height="36"/><path class="cls-4" d="M914.77,222l-9.66,13.15c-.36.49-.46,1-.21,1.21h0a299.77,299.77,0,0,0,32,22.28l10.59-14.56c-15.82-10.7-31.42-22.46-31.66-22.64h0C915.62,221.28,915.13,221.53,914.77,222Z"/><path class="cls-4" d="M896.31,154l13.27,13c.49.48,1.07.69,1.29.46h0A277.81,277.81,0,0,0,937.94,138l-14.7-14.23c-13,14.58-27.21,28.69-27.43,28.92h0C895.6,152.92,895.82,153.49,896.31,154Z"/><circle class="cls-3" cx="255.95" cy="197" r="22"/><circle class="cls-3" cx="680.95" cy="197" r="22"/><path class="cls-4" d="M860.47,121.36S919,113.65,919,197.5"/><line class="cls-5" x1="58.85" y1="121.36" x2="459.66" y2="156.84"/><line class="cls-5" x1="918.95" y1="197.5" x2="459.66" y2="156.84"/><line class="cls-5" x1="860.47" y1="121.36" x2="459.66" y2="156.84"/><line class="cls-5" x1="0.37" y1="197.5" x2="459.66" y2="156.84"/><path class="cls-4" d="M58.85,121.36S.37,113.65.37,197.5"/><line class="cls-5" x1="58.85" y1="121.36" x2="58.85" y2="90.57"/><line class="cls-5" x1="73.87" y1="89.79" x2="73.87" y2="121"/><line class="cls-5" x1="860.47" y1="121.36" x2="58.85" y2="121.36"/><polyline class="cls-4" points="73.87 89.79 73.87 60 58.85 60 58.85 90.57"/><line class="cls-5" x1="58.85" y1="273.64" x2="459.66" y2="238.16"/><line class="cls-5" x1="918.95" y1="197.5" x2="459.66" y2="238.16"/><path class="cls-4" d="M860.47,273.64S919,281.35,919,197.5"/><path class="cls-4" d="M58.85,273.64S.37,281.35.37,197.5"/><line class="cls-5" x1="860.47" y1="273.64" x2="459.66" y2="238.16"/><line class="cls-5" x1="0.37" y1="197.5" x2="459.66" y2="238.16"/><line class="cls-5" x1="58.85" y1="273.64" x2="860.47" y2="273.64"/><line class="cls-5" x1="137.89" y1="88.79" x2="137.89" y2="121.18"/><line class="cls-5" x1="120.98" y1="89.23" x2="120.98" y2="121.18"/><polyline class="cls-4" points="137.89 88.79 137.89 60 120.98 60 120.98 89.23"/><path class="cls-4" d="M96.31,50.56C91.76,38.6,79.24,30,64.48,30,45.89,30,30.82,43.66,30.82,60.5c0,15.11,12.12,27.64,28,30.07"/><path class="cls-4" d="M73.87,89.79c10.88-2.86,19.5-10.55,22.81-20.35"/><path class="cls-4" d="M96.31,50.56a27.84,27.84,0,0,1,.37,18.88"/><path class="cls-4" d="M73.87,89.79a37.05,37.05,0,0,1-15,.78"/><path class="cls-4" d="M137.89,88.79a37.07,37.07,0,0,1-16.91.44"/><path class="cls-4" d="M137.89,88.79c14-3.68,24.28-15.4,24.28-29.29,0-16.84-15.07-30.5-33.66-30.5-15.16,0-28,9.08-32.2,21.56"/><path class="cls-4" d="M96.31,50.56a27.84,27.84,0,0,0,.37,18.88"/><path class="cls-4" d="M121,89.23c-11.37-2.36-20.55-9.93-24.3-19.79"/><circle class="cls-4" cx="88.45" cy="202.5" r="43.5"/><circle cx="56.95" cy="63" r="12"/><circle cx="130.95" cy="63" r="13"/><path class="cls-6" d="M60,197.56s28,47,58,0"/><rect class="cls-4" x="180.69" y="100" width="2.5" height="21.04"/><rect class="cls-4" x="197.44" y="100.15" width="2.5" height="21.04"/><rect class="cls-4" x="214.06" y="100.07" width="2.5" height="21.04"/><rect class="cls-4" x="230.81" y="100.22" width="2.5" height="21.04"/><rect class="cls-4" x="247.69" y="100" width="2.5" height="21.04"/><rect class="cls-4" x="264.44" y="100.15" width="2.5" height="21.04"/><rect class="cls-4" x="281.06" y="100.07" width="2.5" height="21.04"/><rect class="cls-4" x="297.81" y="100.22" width="2.5" height="21.04"/><rect class="cls-4" x="314.69" y="100" width="2.5" height="21.04"/><rect class="cls-4" x="331.44" y="100.15" width="2.5" height="21.04"/><rect class="cls-4" x="348.06" y="100.07" width="2.5" height="21.04"/><rect class="cls-4" x="364.81" y="100.22" width="2.5" height="21.04"/><rect class="cls-4" x="381.69" y="100" width="2.5" height="21.04"/><rect class="cls-4" x="398.44" y="100.15" width="2.5" height="21.04"/><rect class="cls-4" x="415.06" y="100.07" width="2.5" height="21.04"/><rect class="cls-4" x="431.81" y="100.22" width="2.5" height="21.04"/><rect class="cls-4" x="455.88" y="100.05" width="2.5" height="21.04"/><rect class="cls-4" x="472.63" y="100.2" width="2.5" height="21.04"/><rect class="cls-4" x="489.25" y="100.13" width="2.5" height="21.04"/><rect class="cls-4" x="506" y="100.28" width="2.5" height="21.04"/><rect class="cls-4" x="522.88" y="100.05" width="2.5" height="21.04"/><rect class="cls-4" x="539.63" y="100.2" width="2.5" height="21.04"/><rect class="cls-4" x="556.25" y="100.13" width="2.5" height="21.04"/><rect class="cls-4" x="573" y="100.28" width="2.5" height="21.04"/><rect class="cls-4" x="589.88" y="100.05" width="2.5" height="21.04"/><rect class="cls-4" x="606.63" y="100.2" width="2.5" height="21.04"/><rect class="cls-4" x="623.25" y="100.13" width="2.5" height="21.04"/><rect class="cls-4" x="640" y="100.28" width="2.5" height="21.04"/><rect class="cls-4" x="656.88" y="100.05" width="2.5" height="21.04"/><rect class="cls-4" x="673.63" y="100.2" width="2.5" height="21.04"/><rect class="cls-4" x="690.25" y="100.13" width="2.5" height="21.04"/><rect class="cls-4" x="707" y="100.28" width="2.5" height="21.04"/><path class="cls-3" d="M298,203.07s25.11-32.59,56.63-1.07,60.9,0,60.9,0,31.52-37.93,69.44,0,69.45,0,69.45,0,35.26-36.33,71.58,0"/><path class="cls-4" d="M53.61,1.83V20.37a1.25,1.25,0,0,0,1.25,1.25h0c.69,0,45.09,1.07,88.29-1.17L143,0C99.76.85,55.55.58,54.86.58h0A1.25,1.25,0,0,0,53.61,1.83Z"/><rect class="cls-4" x="715.73" y="109.15" width="21.04" height="2.5" transform="translate(614.65 836.47) rotate(-89.91)"/><rect class="cls-4" x="732.48" y="109.33" width="21.04" height="2.5" transform="translate(631.2 853.39) rotate(-89.91)"/><rect class="cls-4" x="749.11" y="109.28" width="21.04" height="2.5" transform="translate(647.84 869.97) rotate(-89.91)"/><rect class="cls-4" x="765.86" y="109.45" width="21.04" height="2.5" transform="translate(664.39 886.9) rotate(-89.91)"/><rect class="cls-4" x="782.73" y="109.26" width="21.04" height="2.5" transform="translate(681.43 903.58) rotate(-89.91)"/><rect class="cls-4" x="799.48" y="109.44" width="21.04" height="2.5" transform="translate(697.98 920.5) rotate(-89.91)"/><rect class="cls-4" x="816.11" y="109.39" width="21.04" height="2.5" transform="translate(714.62 937.08) rotate(-89.91)"/><rect class="cls-4" x="832.86" y="109.57" width="21.04" height="2.5" transform="translate(731.17 954.01) rotate(-89.91)"/><rect class="cls-4" x="849.73" y="109.37" width="21.04" height="2.5" transform="translate(748.21 970.69) rotate(-89.91)"/></g></g></svg>