<svg xmlns="http://www.w3.org/2000/svg" viewBox="0 0 68 165.27"><defs><style>.cls-1{fill:red;}.cls-2{fill:#00a99d;}.cls-3{fill:#f9f6e5;}</style></defs><title>S</title><g id="Layer_2" data-name="Layer 2"><g id="Layer_4" data-name="Layer 4"><rect class="cls-1" x="24" width="21" height="65.15"/><rect x="24" y="65.15" width="21" height="41.35"/><path class="cls-2" d="M68,131.27a34,34,0,0,1-68,0c0-.22,0-.43,0-.65H68C68,130.84,68,131.05,68,131.27Z"/><path class="cls-3" d="M34,97.27a34,34,0,0,1,34,33.35H0A34,34,0,0,1,34,97.27Z"/></g><g id="Layer_5" data-name="Layer 5"><path d="M39.73,120.72a15.64,15.64,0,0,0-2.34-1,8.32,8.32,0,0,0-2.5-.41,4.25,4.25,0,0,0-2.68.78,2.51,2.51,0,0,0-1,2.09,2.35,2.35,0,0,0,.65,1.67,5.76,5.76,0,0,0,1.68,1.17q1,.5,2.19.93a17.67,17.67,0,0,1,1.92.83A7.91,7.91,0,0,1,39.37,128a5.18,5.18,0,0,1,1.22,1.71,6.17,6.17,0,0,1,.45,2.5,5.69,5.69,0,0,1-3.19,5.19,8.06,8.06,0,0,1-3.68.78,11.34,11.34,0,0,1-2.63-.3,11.65,11.65,0,0,1-2.33-.83A18.57,18.57,0,0,1,27.29,136l1.25-2.21a11.86,11.86,0,0,0,1.6.95,9.85,9.85,0,0,0,1.88.71,7.68,7.68,0,0,0,1.91.26,5.82,5.82,0,0,0,2-.35,3.71,3.71,0,0,0,1.59-1.1,3,3,0,0,0,.64-2,2.76,2.76,0,0,0-.57-1.77,4.73,4.73,0,0,0-1.47-1.24,16.61,16.61,0,0,0-2-.91,20.26,20.26,0,0,1-2-.81,9.91,9.91,0,0,1-1.85-1.12,5,5,0,0,1-1.39-1.61,4.63,4.63,0,0,1-.54-2.32,5.11,5.11,0,0,1,.8-2.88,5.61,5.61,0,0,1,2.19-2,7.5,7.5,0,0,1,3.19-.76,11.83,11.83,0,0,1,3.58.49,13.54,13.54,0,0,1,2.74,1.19Z"/></g></g></svg>