<svg xmlns="http://www.w3.org/2000/svg" viewBox="0 0 68 165.58"><defs><style>.cls-1{fill:red;}.cls-2{fill:#00a99d;}.cls-3{fill:#f9f6e5;}</style></defs><title>W</title><g id="Layer_2" data-name="Layer 2"><g id="Layer_4" data-name="Layer 4"><rect class="cls-1" x="24" width="21" height="65.3"/><rect x="24" y="65.3" width="21" height="41.2"/><path class="cls-2" d="M68,131.58a34,34,0,0,1-68,0c0-.27,0-.54,0-.81H68C68,131,68,131.31,68,131.58Z"/><path class="cls-3" d="M34,97.58a34,34,0,0,1,34,33.19H0A34,34,0,0,1,34,97.58Z"/></g><g id="Layer_5" data-name="Layer 5"><path d="M21.17,117.22h3.3l5.66,16-.49-.18,4.14-10.75,1.31,3.79-5.57,13Zm10.12,0h2.78L40.25,133l-.61-.12L45,117.22h3L39.82,139Z"/></g></g></svg>